<svg width="670" height="902" viewBox="0 0 670 902" fill="none" xmlns="http://www.w3.org/2000/svg">
<path d="M211 581C198.502 589.014 166.399 621.965 158 669.647C158.5 680.833 163.399 706.11 176.997 717.73C193.994 732.255 215.491 796.866 218.991 814.396L199.994 832.928C194.828 839.606 179.097 857.37 179.497 864.983C179.997 874.5 212.492 895.035 218.991 894.534C225.49 894.033 242.487 896.037 249.486 891.529C256.485 887.021 310.977 854.966 321.475 857.47C331.973 859.975 363.968 862.479 366.968 860.976C369.968 859.474 401.463 886.019 406.962 894.534C412.461 903.049 438.957 901.546 441.457 899.042C443.956 896.537 467.953 901.546 467.953 896.537C467.953 891.529 489.949 892.03 488.949 886.019C487.949 880.009 496.448 881.011 488.949 870.994C481.45 860.976 455.628 824.639 460.954 820.907C470.692 814.084 486.45 752.289 488.949 741.771C491.449 731.253 496.896 720.691 506.447 709.215C511.946 689.849 516.945 644.204 492.949 616.556C468.952 588.908 467 586.5 467 586.5C407.5 611 322.008 628 211 581Z" fill="#C19D1D" stroke="black" stroke-linecap="round" stroke-linejoin="round"/>
<path d="M191.5 600C235.833 644.5 359.4 709.1 489 611.5C501 624.5 513.5 657.2 511.5 674C509 695 331.5 812 166.5 643.5C168.5 634 176.7 615.2 191.5 600Z" fill="#9C3737"/>
<path d="M191.5 736.5C234 771.5 355 820.8 489 742L476 789C435.5 816.333 321.3 855.5 210.5 783.5L191.5 736.5Z" fill="#9C3737"/>
<path d="M191.5 600C235.833 644.5 359.4 709.1 489 611.5C501 624.5 513.5 657.2 511.5 674C509 695 331.5 812 166.5 643.5C168.5 634 176.7 615.2 191.5 600Z" stroke="black" stroke-width="2" stroke-linecap="round" stroke-linejoin="round"/>
<path d="M191.5 736.5C234 771.5 355 820.8 489 742L476 789C435.5 816.333 321.3 855.5 210.5 783.5L191.5 736.5Z" stroke="black" stroke-width="2" stroke-linecap="round" stroke-linejoin="round"/>
<path d="M205.5 639C194.3 643.8 193 636 188.5 632C183 627.111 185 621.5 177 624C169.666 626.292 157.462 652.733 159.5 688.5C161.178 717.957 209 739 215.5 749.5C222 760 251.455 783.5 259.5 784.5C265.936 785.3 266.515 774.438 266 768.907C255.535 765.409 248.208 760.077 245 758.466L243.5 758C243.798 757.941 244.301 758.115 245 758.466C248.208 760.077 255.535 765.409 266 768.907C272.401 771.047 279.976 772.502 288.5 772C308.9 770.8 303 745.349 297.5 732.773C279.43 733.59 256.802 729.059 251.455 727.357C251.016 727.218 250.694 727.097 250.5 727L251.455 727.357C256.802 729.059 279.43 733.59 297.5 732.773C308.494 732.276 317.801 729.799 320.5 723.5C328 706 314 684.5 310 689.312C308.862 690.681 303.152 692.198 296.126 693.605C288.29 695.539 279.109 696.969 270 698C252.47 699.984 278.457 697.144 296.126 693.605C309.367 690.339 318.769 685.636 317.5 679C336.5 630 276 665 262.5 666.5C249 668 246.5 661.5 243.5 658.5C240.5 655.5 240 652 240 648.5C240 645 267 640 270 624C273 608 239.887 622.425 233.5 624C225.12 626.067 219.5 633 205.5 639Z" fill="#DCB689"/>
<path d="M251.455 727.357C251.016 727.218 250.694 727.097 250.5 727L251.455 727.357ZM251.455 727.357C256.802 729.059 279.43 733.59 297.5 732.773M297.5 732.773C308.494 732.276 317.801 729.799 320.5 723.5C328 706 314 684.5 310 689.312C308.862 690.681 303.152 692.198 296.126 693.605M297.5 732.773C303 745.349 308.9 770.8 288.5 772C279.976 772.502 272.401 771.047 266 768.907M245 758.466C244.301 758.115 243.798 757.941 243.5 758L245 758.466ZM245 758.466C248.208 760.077 255.535 765.409 266 768.907M266 768.907C266.515 774.438 265.936 785.3 259.5 784.5C251.455 783.5 222 760 215.5 749.5C209 739 161.178 717.957 159.5 688.5C157.462 652.733 169.666 626.292 177 624C185 621.5 183 627.111 188.5 632C193 636 194.3 643.8 205.5 639C219.5 633 225.12 626.067 233.5 624C239.887 622.425 273 608 270 624C267 640 240 645 240 648.5C240 652 240.5 655.5 243.5 658.5C246.5 661.5 249 668 262.5 666.5C276 665 336.5 630 317.5 679C318.769 685.636 309.367 690.339 296.126 693.605M296.126 693.605C288.29 695.539 279.109 696.969 270 698C252.47 699.984 278.457 697.144 296.126 693.605Z" stroke="black" stroke-width="2" stroke-linecap="round" stroke-linejoin="round"/>
<path d="M501.5 633.5C492.667 621.667 472.7 604.9 463.5 622.5C452 644.5 453.5 657 433.5 645C412.322 632.293 388 619 391 657C403.5 667.5 432.494 684.045 373 676.5C349.464 673.515 353.977 693.906 369.5 705C380.318 712.731 399.341 717.195 406.563 717.929C407.4 717.954 408.214 717.978 409 718C408.523 718.068 407.686 718.044 406.563 717.929C388.494 717.393 359.301 716.354 355 724C348.607 735.367 352 750 412.5 746.5C385.905 748.606 335.085 749.544 359.5 775C363.953 777.141 372.383 780.129 383 780.457C392.102 780.738 402.812 779.44 414 775L416.077 773.813C416.551 773.509 417.025 773.215 417.5 773L416.077 773.813C415.383 774.259 414.691 774.726 414 775C402.812 779.44 392.102 780.738 383 780.457C373.334 792.647 368.397 817.511 415.5 795.5C469 770.5 530.5 720.5 501.5 633.5Z" fill="#DCB689"/>
<path d="M414 775C402.812 779.44 392.102 780.738 383 780.457M414 775L416.077 773.813M414 775C414.691 774.726 415.383 774.259 416.077 773.813M383 780.457C372.383 780.129 363.953 777.141 359.5 775C335.085 749.544 385.905 748.606 412.5 746.5C352 750 348.607 735.367 355 724C359.301 716.354 388.494 717.393 406.563 717.929M383 780.457C373.334 792.647 368.397 817.511 415.5 795.5C469 770.5 530.5 720.5 501.5 633.5C492.667 621.667 472.7 604.9 463.5 622.5C452 644.5 453.5 657 433.5 645C412.322 632.293 388 619 391 657C403.5 667.5 432.494 684.045 373 676.5C349.464 673.515 353.977 693.906 369.5 705C380.318 712.731 399.341 717.195 406.563 717.929M406.563 717.929C407.4 717.954 408.214 717.978 409 718C408.523 718.068 407.686 718.044 406.563 717.929ZM416.077 773.813C416.551 773.509 417.025 773.215 417.5 773L416.077 773.813Z" stroke="black" stroke-width="2" stroke-linecap="round" stroke-linejoin="round"/>
<path d="M7.49993 377.5C14.6999 405.5 58.0002 432 83.0002 440C85.8002 471.2 142.167 530 170 555.5C214.4 594.7 286.334 608.667 316.5 612.5C342.658 614.42 376.097 610.062 404 605.5C410.128 603.159 423.674 601.109 449 593.5C538.2 566.7 572.833 495.833 579 463.5C584.6 464.7 604 462.667 613 460.5C640.2 455.3 658.167 416.833 664.5 398.5C682.1 343.7 638 320.667 613 314L616 280.5V237.5C598.5 145.5 554 91 522.5 69C491 47 426.5 23 372 13.5C328.4 5.9 259.5 23 230.5 32.5C176.1 40.5 114.333 126.5 90.5 169L58.0002 272.5C30.0002 278.5 15.6668 294.667 12.0002 302C-6.39983 330.8 1.83327 364.833 7.49993 377.5Z" fill="#C8A276" stroke="black" stroke-linecap="round" stroke-linejoin="round"/>
<path d="M48.2872 332.217C54.9858 321.124 57.129 309.763 36.8814 317.595C17.329 325.158 22.4999 367.5 48.2872 385.5M618 392C615 370.5 630.5 330 647.5 368.5C663.275 404.227 617.667 440.667 591.5 449" stroke="black" stroke-width="2" stroke-linecap="round" stroke-linejoin="round"/>
<path d="M204 447C213.667 477.167 257.8 536.6 357 533C421.5 526.5 439 521 482 478C495.5 473 510 478.5 512 488C504 488 495.5 478 478.5 493C461.5 508 424.5 537.5 387 541C349.5 544.5 320.5 546.5 274.5 533C228.5 519.5 203 465.5 196.5 455C190 444.5 184.5 461 182.5 461C180.5 461 177.5 433 204 447Z" fill="#B02E1D" stroke="black" stroke-width="2" stroke-linecap="round" stroke-linejoin="round"/>
<ellipse cx="349" cy="404.5" rx="78" ry="74.5" fill="#242424" fill-opacity="0.5"/>
<ellipse cx="349" cy="400.5" rx="75" ry="74.5" fill="#C9A577"/>
<path d="M191.5 235C169.333 239 130.6 263.2 153 328C178.5 375 241 380.5 258.5 330.5C276 280.5 245.5 222.5 191.5 235Z" fill="white" stroke="black" stroke-width="2" stroke-linecap="round" stroke-linejoin="round"/>
<ellipse cx="216.5" cy="262" rx="16.5" ry="18" fill="#393939"/>
<ellipse cx="224" cy="254.5" rx="6" ry="6.5" fill="white"/>
<path d="M147 136.5C225.833 145.5 392 180.906 460 232C442.667 274 420.857 381.916 491.5 407.5C584 441 601.5 315.5 596 288.5C600 288.167 609.7 290.1 616.5 300.5C616.717 300.832 617.5 301.5 617.5 301.5C618.72 298.355 620 293.525 620 291.5C620 288.5 596 238.5 432.5 195C366.667 170.833 219.3 124.5 156.5 132.5L147 136.5Z" fill="#1C1B1B" stroke="black" stroke-width="2" stroke-linecap="round" stroke-linejoin="round"/>
<path d="M89.5 166.5C109.333 138.833 196.8 99.5991 392 141.999C587.2 184.399 612.679 234.001 616 262.5C646.732 75.3523 282.136 -164.261 89.5 166.5Z" fill="#1C1B1B" stroke="black" stroke-width="2" stroke-linecap="round" stroke-linejoin="round"/>
</svg>
