<svg width="235" height="235" viewBox="0 0 235 235" fill="none" xmlns="http://www.w3.org/2000/svg">
<path d="M150.5 226V150.5H226C230.142 150.5 233.5 147.142 233.5 143V92C233.5 87.8579 230.142 84.5 226 84.5L150.5 84.5V9C150.5 4.85786 147.142 1.5 143 1.5L92 1.5C87.8579 1.5 84.5 4.85787 84.5 9.00001L84.5 84.5L9 84.5C4.85786 84.5 1.5 87.8579 1.5 92L1.5 143C1.5 147.142 4.85787 150.5 9.00001 150.5H84.5L84.5 226C84.5 230.142 87.8579 233.5 92 233.5H143C147.142 233.5 150.5 230.142 150.5 226Z" fill="#EBEBEB" stroke="black" stroke-width="3"/>
</svg>
