<svg width="412" height="623" viewBox="0 0 412 623" fill="none" xmlns="http://www.w3.org/2000/svg">
<mask id="path-1-inside-1" fill="white">
<path d="M354.821 253.945C319.574 258.148 332.89 253.945 294.509 253.945C309.392 101.75 256.913 67.2605 212.266 63.0567C167.62 58.8529 97.1254 81.5715 116.707 252.245C117.641 260.385 59.6575 256.939 53.2624 252.245C52.4466 251.646 57.4054 254.468 58.2891 253.945C31.3307 67.2605 125.632 0 207.175 0C288.718 0 379.886 63.0567 354.821 253.945Z"/>
</mask>
<path d="M354.821 253.945C319.574 258.148 332.89 253.945 294.509 253.945C309.392 101.75 256.913 67.2605 212.266 63.0567C167.62 58.8529 97.1254 81.5715 116.707 252.245C117.641 260.385 59.6575 256.939 53.2624 252.245C52.4466 251.646 57.4054 254.468 58.2891 253.945C31.3307 67.2605 125.632 0 207.175 0C288.718 0 379.886 63.0567 354.821 253.945Z" fill="#BCBCBC"/>
<path d="M58.9298 252.05L53.903 250.35L52.6218 254.14L57.6485 255.839L58.9298 252.05ZM354.821 253.945L355.295 257.916L358.382 257.548L358.787 254.465L354.821 253.945ZM58.2891 253.945L60.3281 257.386L62.6306 256.022L62.2481 253.373L58.2891 253.945ZM116.707 252.245L112.733 252.701L116.707 252.245ZM53.2624 252.245L55.6292 249.02L53.2624 252.245ZM294.509 253.945L290.528 253.555L290.099 257.945H294.509V253.945ZM62.2481 253.373C48.8682 160.718 65.6758 98.4201 95.2332 59.3802C124.781 20.3536 167.49 4 207.175 4V-4C165.317 -4 120.105 13.2766 88.8551 54.5513C57.6156 95.8127 40.7517 160.487 54.3302 254.516L62.2481 253.373ZM207.175 4C246.919 4 288.813 19.3438 317.781 57.7962C346.787 96.2989 363.306 158.601 350.855 253.424L358.787 254.465C371.401 158.4 354.868 93.7301 324.171 52.9825C293.436 12.1845 248.974 -4 207.175 -4V4ZM212.641 59.0743C189.506 56.8959 159.138 61.6758 137.253 89.6046C115.529 117.327 102.898 166.977 112.733 252.701L120.681 251.789C110.935 166.839 123.76 119.794 143.55 94.539C163.178 69.4912 190.38 65.0137 211.891 67.0391L212.641 59.0743ZM112.733 252.701C112.639 251.883 112.99 251.249 113.232 250.977C113.384 250.807 113.373 250.902 112.876 251.124C111.893 251.564 110.13 252.018 107.539 252.377C102.455 253.081 95.3478 253.272 87.8467 253.059C80.3788 252.847 72.7033 252.241 66.5417 251.406C63.4552 250.988 60.8139 250.522 58.7974 250.037C57.788 249.795 56.9915 249.561 56.4018 249.347C55.7574 249.114 55.5737 248.98 55.6292 249.02L50.8955 255.469C52.4218 256.59 54.7737 257.298 56.9284 257.816C59.3033 258.386 62.2339 258.896 65.4681 259.334C71.9479 260.211 79.909 260.837 87.6197 261.056C95.2971 261.274 102.911 261.094 108.636 260.301C111.449 259.912 114.113 259.336 116.146 258.425C117.158 257.972 118.304 257.311 119.205 256.299C120.198 255.185 120.892 253.624 120.681 251.789L112.733 252.701ZM55.6292 249.02C55.6365 249.026 55.6973 249.07 55.7808 249.14C55.8225 249.176 55.9023 249.244 55.9982 249.339C56.0675 249.408 56.2814 249.622 56.4976 249.944C56.6059 250.106 56.8005 250.42 56.9519 250.857C57.0954 251.271 57.309 252.11 57.0526 253.135C56.3927 255.773 53.9185 256.109 53.5485 256.144C52.944 256.2 52.4759 256.1 52.374 256.078C52.1959 256.041 52.0601 256 51.9958 255.979C51.735 255.896 51.5701 255.806 51.8689 255.947C52.1619 256.086 52.8263 256.411 53.4884 256.71C54.1487 257.009 55.0023 257.375 55.8143 257.631C56.2101 257.756 56.7422 257.902 57.3156 257.97C57.6816 258.013 59.012 258.166 60.3281 257.386L56.2502 250.503C56.8657 250.139 57.4212 250.05 57.6906 250.024C57.979 249.996 58.184 250.017 58.2563 250.025C58.3926 250.041 58.3986 250.057 58.218 250.001C57.8772 249.893 57.3764 249.689 56.7885 249.423C56.2024 249.157 55.7249 248.921 55.2899 248.716C55.2247 248.685 54.7994 248.476 54.4201 248.356C54.3409 248.33 54.1925 248.285 54.0041 248.246C53.892 248.223 53.4158 248.121 52.8057 248.178C52.4301 248.213 49.9526 248.552 49.2918 251.193C49.035 252.22 49.2489 253.061 49.3932 253.477C49.5454 253.916 49.7414 254.233 49.8518 254.398C50.0721 254.727 50.2927 254.948 50.3712 255.026C50.4764 255.13 50.5681 255.209 50.6243 255.257C50.7367 255.352 50.8373 255.427 50.8955 255.469L55.6292 249.02ZM354.348 249.973C336.81 252.064 331.654 252.025 326.197 251.537C320.375 251.016 313.915 249.945 294.509 249.945V257.945C313.484 257.945 319.556 258.975 325.484 259.505C331.776 260.068 337.585 260.029 355.295 257.916L354.348 249.973ZM298.491 254.334C305.967 177.878 296.624 130.192 279.144 100.952C261.51 71.4502 235.933 61.2674 212.641 59.0743L211.891 67.0391C233.246 69.0498 256.232 78.2134 272.278 105.056C288.479 132.16 297.935 177.816 290.528 253.555L298.491 254.334Z" fill="black" mask="url(#path-1-inside-1)"/>
<rect x="2" y="254.227" width="408" height="366.773" rx="50" fill="#FDAF40" stroke="black" stroke-width="4"/>
<path d="M243.989 403.563C243.989 404.806 244.093 406.214 243.989 407.767C243.163 419.996 237.722 431.308 223.232 443.078C227.148 517.485 223.232 510.339 204.433 510.339C184.068 510.339 185.243 501.931 187.201 443.078C175.452 432.569 164.095 421.219 164.095 403.563C164.095 379.882 182.371 360.684 204.433 360.684C226.495 360.684 243.989 379.882 243.989 403.563Z" fill="#0A0A0A"/>
</svg>
